<svg id="Layer_1" data-name="Layer 1" xmlns="http://www.w3.org/2000/svg" xmlns:xlink="http://www.w3.org/1999/xlink" viewBox="0 0 675.17 271.06"><defs><style>.cls-1{fill:none;}.cls-2{clip-path:url(#clip-path);}.cls-3{fill:#fff;fill-rule:evenodd;}</style><clipPath id="clip-path"><rect class="cls-1" x="20.88" y="21.79" width="227.47" height="227.47"/></clipPath></defs><g id="Artwork_2" data-name="Artwork 2"><g class="cls-2"><rect x="20.88" y="21.79" width="227.47" height="227.47"/><path class="cls-3" d="M96.13,72.34h90.52V97l-12.06,12.09H131.7v7.34h44V141L163.6,153.09H131.7v7.34h55v24.62l-12.06,12.09H84.07V84.43ZM88.49,85.19h85.34v19.43L183,95.44V76H97.65ZM128,108.68h-9.16v20.55h44v19.43l9.16-9.18V120.06H128Zm0,44.17h-9.16v20.43h55V192.7l9.16-9.17V164.1H128Z"/></g></g><path d="M354.66,53.82v4.12H318.53V85.68H348.6v4H318.53v28.61h36.13v4.12H313.53V53.82Z"/><path d="M374.49,51.88v70.56h-4.6V51.88Z"/><path d="M397.53,51.88v70.56h-4.61V51.88Z"/><path d="M422.6,57.55a3.74,3.74,0,0,1-.36,1.63,4.82,4.82,0,0,1-.95,1.33,4.2,4.2,0,0,1-1.35.92,4,4,0,0,1-1.65.34,4,4,0,0,1-1.65-.34,4.25,4.25,0,0,1-1.36-.92,4.35,4.35,0,0,1-.92-1.33,3.87,3.87,0,0,1-.34-1.63,4.37,4.37,0,0,1,1.26-3,4.44,4.44,0,0,1,1.36-.93,4.12,4.12,0,0,1,1.65-.33,4.19,4.19,0,0,1,1.65.33,4.4,4.4,0,0,1,1.35.93,4.52,4.52,0,0,1,.95,1.38A4,4,0,0,1,422.6,57.55Zm-2,16.64v48.25H416V74.19Z"/><path d="M437.64,139.52V74.19h2.52a1.84,1.84,0,0,1,1,.26,1.18,1.18,0,0,1,.43,1l.44,7.47a25.63,25.63,0,0,1,7.49-6.94,18.43,18.43,0,0,1,9.63-2.57q8.93,0,13.87,6.16T478,98a34.12,34.12,0,0,1-1.38,9.87,23.5,23.5,0,0,1-4.05,7.95,19.23,19.23,0,0,1-6.57,5.32,20.06,20.06,0,0,1-9,1.93,18.87,18.87,0,0,1-8.54-1.79,17.44,17.44,0,0,1-6.21-5.33v23.57ZM457.86,77.1a15.83,15.83,0,0,0-8.7,2.49,24.14,24.14,0,0,0-6.92,7v25.32a16.56,16.56,0,0,0,6.14,5.87,18.5,18.5,0,0,0,15.16.15,14.71,14.71,0,0,0,5.35-4.39,19.74,19.74,0,0,0,3.25-6.79,32.6,32.6,0,0,0,1.1-8.71q0-10.77-4-15.83T457.86,77.1Z"/><path d="M502.67,123.22c-3.26,0-5.8-.9-7.61-2.72s-2.72-4.6-2.72-8.39v-33h-6.93a1.24,1.24,0,0,1-.87-.29,1,1,0,0,1-.34-.82v-1.8l8.24-.58,1.15-17.26a1.34,1.34,0,0,1,.36-.78,1.08,1.08,0,0,1,.84-.34H497V75.69h15.18v3.44H497v32.74a10.18,10.18,0,0,0,.51,3.42,6.36,6.36,0,0,0,1.41,2.35A5.44,5.44,0,0,0,501,119a7.7,7.7,0,0,0,2.62.44,8,8,0,0,0,3-.51,12.41,12.41,0,0,0,2.19-1.12,14,14,0,0,0,1.5-1.11,1.64,1.64,0,0,1,.92-.51,1.06,1.06,0,0,1,.78.48l1.26,2a13.38,13.38,0,0,1-4.68,3.27A14.53,14.53,0,0,1,502.67,123.22Z"/><path d="M532.11,57.55a3.74,3.74,0,0,1-.36,1.63,4.82,4.82,0,0,1-1,1.33,4.2,4.2,0,0,1-1.35.92,4,4,0,0,1-1.65.34,4,4,0,0,1-1.65-.34,4.25,4.25,0,0,1-1.36-.92,4.35,4.35,0,0,1-.92-1.33,3.87,3.87,0,0,1-.34-1.63,4.37,4.37,0,0,1,1.26-3,4.44,4.44,0,0,1,1.36-.93,4.12,4.12,0,0,1,1.65-.33,4.19,4.19,0,0,1,1.65.33,4.4,4.4,0,0,1,1.35.93,4.52,4.52,0,0,1,1,1.38A4,4,0,0,1,532.11,57.55Zm-2,16.64v48.25h-4.61V74.19Z"/><path d="M578.91,80.64a4.12,4.12,0,0,1-.46.41,1,1,0,0,1-.6.17,2.53,2.53,0,0,1-1.34-.66,18.35,18.35,0,0,0-2.25-1.43,19.82,19.82,0,0,0-3.52-1.43,17.67,17.67,0,0,0-5.12-.65,17.48,17.48,0,0,0-7.39,1.48,14.64,14.64,0,0,0-5.43,4.24,19.23,19.23,0,0,0-3.37,6.69,34.34,34.34,0,0,0,0,17.85,19.21,19.21,0,0,0,3.37,6.62,14.37,14.37,0,0,0,5.29,4.1,16.44,16.44,0,0,0,6.88,1.41,17.86,17.86,0,0,0,5.85-.83,18.89,18.89,0,0,0,3.88-1.79,17,17,0,0,0,2.42-1.8,2.51,2.51,0,0,1,1.43-.82,1.11,1.11,0,0,1,1,.48l1.27,1.56A14.33,14.33,0,0,1,578,119a19.42,19.42,0,0,1-3.83,2.19,23.85,23.85,0,0,1-4.63,1.43,26,26,0,0,1-5.21.5,20.62,20.62,0,0,1-8.42-1.67,18.17,18.17,0,0,1-6.55-4.85,22.67,22.67,0,0,1-4.26-7.78A36.25,36.25,0,0,1,545,88.2a22.67,22.67,0,0,1,4.25-7.85,19,19,0,0,1,6.83-5.12,22.51,22.51,0,0,1,9.29-1.82,21.92,21.92,0,0,1,8.37,1.5A20.74,20.74,0,0,1,580.13,79Z"/><path d="M363.39,214.85a1.09,1.09,0,0,1,.82.34l1.94,2.08a31.75,31.75,0,0,1-4.65,4.1,29.27,29.27,0,0,1-5.51,3.11,32.26,32.26,0,0,1-6.54,2,40.49,40.49,0,0,1-7.84.71,33.31,33.31,0,0,1-13.07-2.5,29.16,29.16,0,0,1-10.18-7.08,32.5,32.5,0,0,1-6.62-11.08,41.74,41.74,0,0,1-2.38-14.46,40,40,0,0,1,2.45-14.26,32.41,32.41,0,0,1,6.89-11.08,30.65,30.65,0,0,1,10.62-7.18A35.64,35.64,0,0,1,343,157a38,38,0,0,1,6.84.56,30.69,30.69,0,0,1,5.79,1.6,26.89,26.89,0,0,1,5.07,2.59,39,39,0,0,1,4.66,3.59l-1.5,2.18a1.36,1.36,0,0,1-1.22.58,2,2,0,0,1-1.11-.51l-1.72-1.26c-.7-.5-1.54-1-2.53-1.65a20.61,20.61,0,0,0-3.51-1.64,29,29,0,0,0-4.71-1.27,33.42,33.42,0,0,0-6.06-.5,30,30,0,0,0-11.49,2.15,25.78,25.78,0,0,0-9,6.16,28.1,28.1,0,0,0-5.9,9.7,36.76,36.76,0,0,0-2.11,12.78,37.8,37.8,0,0,0,2.09,13,28,28,0,0,0,5.77,9.68,25.14,25.14,0,0,0,8.71,6.06,27.7,27.7,0,0,0,10.88,2.11,39.33,39.33,0,0,0,6.58-.49,25.47,25.47,0,0,0,5.31-1.45,24.2,24.2,0,0,0,4.51-2.38,33.64,33.64,0,0,0,4.12-3.3,3.72,3.72,0,0,1,.46-.31A1.07,1.07,0,0,1,363.39,214.85Z"/><path d="M397.82,177.36a23.22,23.22,0,0,1,9.29,1.77,18.86,18.86,0,0,1,6.91,5,22,22,0,0,1,4.29,7.83,36.2,36.2,0,0,1,0,20.49,22.13,22.13,0,0,1-4.29,7.81,18.7,18.7,0,0,1-6.91,5,25.64,25.64,0,0,1-18.57,0,18.89,18.89,0,0,1-6.94-5,22.18,22.18,0,0,1-4.32-7.81,36.2,36.2,0,0,1,0-20.49,22,22,0,0,1,4.32-7.83,19,19,0,0,1,6.94-5A23.17,23.17,0,0,1,397.82,177.36Zm0,46a17.86,17.86,0,0,0,7.54-1.48,14.27,14.27,0,0,0,5.39-4.24A18.67,18.67,0,0,0,414,211a36.23,36.23,0,0,0,0-17.48,18.92,18.92,0,0,0-3.22-6.72,14.4,14.4,0,0,0-5.39-4.29,19.58,19.58,0,0,0-15.08,0,14.36,14.36,0,0,0-5.38,4.29,19.3,19.3,0,0,0-3.25,6.72,35.59,35.59,0,0,0,0,17.48,19.05,19.05,0,0,0,3.25,6.67,14.24,14.24,0,0,0,5.38,4.24A17.89,17.89,0,0,0,397.82,223.38Z"/><path d="M431.92,226.39V178.13h2.52a1.31,1.31,0,0,1,1.45,1.22l.44,7.27A27.11,27.11,0,0,1,444,179.9a19.16,19.16,0,0,1,9.77-2.54,18.16,18.16,0,0,1,7,1.26,12.85,12.85,0,0,1,5,3.64,16,16,0,0,1,3,5.72,25.92,25.92,0,0,1,1,7.57v30.84h-4.6V195.55q0-6.8-3.11-10.65t-9.5-3.86a16.87,16.87,0,0,0-8.83,2.45,25.73,25.73,0,0,0-7.28,6.72v36.18Z"/><path d="M484.39,226.39V178.13h2.52a1.32,1.32,0,0,1,1.46,1.22l.44,7.27a27.08,27.08,0,0,1,7.68-6.72,19.22,19.22,0,0,1,9.78-2.54,18.1,18.1,0,0,1,7,1.26,12.78,12.78,0,0,1,5,3.64,16,16,0,0,1,3,5.72,25.92,25.92,0,0,1,1,7.57v30.84h-4.61V195.55q0-6.8-3.1-10.65T505.1,181a16.87,16.87,0,0,0-8.83,2.45,25.7,25.7,0,0,0-7.27,6.72v36.18Z"/><path d="M555.06,177.36a20.07,20.07,0,0,1,7.54,1.4,17.06,17.06,0,0,1,6,4.1,19,19,0,0,1,4,6.62,26.39,26.39,0,0,1,1.43,9,2.41,2.41,0,0,1-.32,1.46,1.2,1.2,0,0,1-1,.39H537.89v.92a32.74,32.74,0,0,0,1.26,9.55,19.42,19.42,0,0,0,3.59,6.91,14.78,14.78,0,0,0,5.62,4.2,18.59,18.59,0,0,0,7.37,1.41,21.83,21.83,0,0,0,6.31-.81,23.67,23.67,0,0,0,4.49-1.79,24.7,24.7,0,0,0,2.88-1.79,3.21,3.21,0,0,1,1.55-.8,1.11,1.11,0,0,1,1,.48l1.26,1.55a13,13,0,0,1-3.08,2.72,22.08,22.08,0,0,1-4.26,2.16,31.32,31.32,0,0,1-5.05,1.43,28.11,28.11,0,0,1-5.41.53,23,23,0,0,1-9-1.72,19.29,19.29,0,0,1-7-5,23,23,0,0,1-4.51-8.08,34.55,34.55,0,0,1-1.59-10.93,29.74,29.74,0,0,1,1.48-9.58,21.83,21.83,0,0,1,4.27-7.57,19.47,19.47,0,0,1,6.83-5A22.61,22.61,0,0,1,555.06,177.36Zm.07,3.44a18.05,18.05,0,0,0-6.69,1.17,14.62,14.62,0,0,0-5.11,3.34,17.25,17.25,0,0,0-3.48,5.24,23.84,23.84,0,0,0-1.77,6.84h31.77a21.19,21.19,0,0,0-1.07-7,15,15,0,0,0-3-5.22,13,13,0,0,0-4.65-3.27A15.35,15.35,0,0,0,555.13,180.8Z"/><path d="M618.2,184.58a4.28,4.28,0,0,1-.46.42,1,1,0,0,1-.61.17,2.54,2.54,0,0,1-1.33-.66,18.15,18.15,0,0,0-2.26-1.43,19,19,0,0,0-3.51-1.43,17.3,17.3,0,0,0-5.12-.66,17.63,17.63,0,0,0-7.39,1.48,14.72,14.72,0,0,0-5.44,4.25,19.49,19.49,0,0,0-3.37,6.69,31.27,31.27,0,0,0-1.16,8.83,31,31,0,0,0,1.19,9,19.13,19.13,0,0,0,3.37,6.62,14.36,14.36,0,0,0,5.28,4.1,16.48,16.48,0,0,0,6.89,1.4,17.78,17.78,0,0,0,5.84-.82,19,19,0,0,0,3.89-1.8,17.49,17.49,0,0,0,2.42-1.79,2.48,2.48,0,0,1,1.43-.82,1.12,1.12,0,0,1,1,.48l1.26,1.55a14,14,0,0,1-2.81,2.72,18.91,18.91,0,0,1-3.83,2.18,23.39,23.39,0,0,1-4.63,1.43,26.11,26.11,0,0,1-5.22.51,20.77,20.77,0,0,1-8.41-1.67,18.29,18.29,0,0,1-6.55-4.85,22.64,22.64,0,0,1-4.27-7.79,36.09,36.09,0,0,1-.07-20.56,22.7,22.7,0,0,1,4.24-7.86,19,19,0,0,1,6.84-5.11,22.36,22.36,0,0,1,9.29-1.82,22,22,0,0,1,8.37,1.5,20.33,20.33,0,0,1,6.37,4.08Z"/><path d="M643.71,227.17c-3.27,0-5.8-.91-7.61-2.72s-2.72-4.61-2.72-8.39v-33h-6.94a1.32,1.32,0,0,1-.87-.29,1,1,0,0,1-.34-.82v-1.8l8.25-.58,1.15-17.27a1.29,1.29,0,0,1,.36-.77,1.08,1.08,0,0,1,.84-.34H638v18.43h15.18v3.44H638v32.74a10.26,10.26,0,0,0,.51,3.42,6.34,6.34,0,0,0,1.4,2.35A5.56,5.56,0,0,0,642,223a7.7,7.7,0,0,0,2.62.43,8,8,0,0,0,3-.51,12.63,12.63,0,0,0,2.18-1.11,13,13,0,0,0,1.5-1.12,1.66,1.66,0,0,1,.93-.51,1.08,1.08,0,0,1,.77.49l1.26,2a13.51,13.51,0,0,1-4.68,3.27A14.65,14.65,0,0,1,643.71,227.17Z"/></svg>